<mxfile host="Electron" agent="Mozilla/5.0 (Windows NT 10.0; Win64; x64) AppleWebKit/537.36 (KHTML, like Gecko) draw.io/27.0.9 Chrome/134.0.6998.205 Electron/35.4.0 Safari/537.36" version="27.0.9">
  <diagram name="Page-1" id="IJa_UR_YmvX4qbrksx9x">
    <mxGraphModel dx="2316" dy="1604" grid="1" gridSize="10" guides="1" tooltips="1" connect="1" arrows="1" fold="1" page="1" pageScale="1" pageWidth="1100" pageHeight="850" math="0" shadow="0">
      <root>
        <mxCell id="0" />
        <mxCell id="1" parent="0" />
        <mxCell id="VkWI0dTlf0ZNrizkGloP-1" value="" style="ellipse;whiteSpace=wrap;html=1;" vertex="1" parent="1">
          <mxGeometry x="500" y="50" width="160" height="80" as="geometry" />
        </mxCell>
        <mxCell id="VkWI0dTlf0ZNrizkGloP-2" value="" style="edgeStyle=orthogonalEdgeStyle;rounded=0;orthogonalLoop=1;jettySize=auto;html=1;entryX=0.5;entryY=0;entryDx=0;entryDy=0;" edge="1" parent="1" source="VkWI0dTlf0ZNrizkGloP-3" target="VkWI0dTlf0ZNrizkGloP-5">
          <mxGeometry relative="1" as="geometry" />
        </mxCell>
        <mxCell id="VkWI0dTlf0ZNrizkGloP-3" value="" style="rounded=0;whiteSpace=wrap;html=1;" vertex="1" parent="1">
          <mxGeometry x="440" y="160" width="280" height="60" as="geometry" />
        </mxCell>
        <mxCell id="VkWI0dTlf0ZNrizkGloP-4" style="edgeStyle=orthogonalEdgeStyle;rounded=0;orthogonalLoop=1;jettySize=auto;html=1;entryX=0.5;entryY=0;entryDx=0;entryDy=0;" edge="1" parent="1" source="VkWI0dTlf0ZNrizkGloP-5" target="VkWI0dTlf0ZNrizkGloP-25">
          <mxGeometry relative="1" as="geometry" />
        </mxCell>
        <mxCell id="VkWI0dTlf0ZNrizkGloP-5" value="" style="rounded=0;whiteSpace=wrap;html=1;fontSize=16;" vertex="1" parent="1">
          <mxGeometry x="440" y="260" width="280" height="60" as="geometry" />
        </mxCell>
        <mxCell id="VkWI0dTlf0ZNrizkGloP-6" value="&lt;font style=&quot;font-size: 16px;&quot;&gt;Requirement Gathering&lt;/font&gt;" style="text;html=1;align=center;verticalAlign=middle;whiteSpace=wrap;rounded=0;" vertex="1" parent="1">
          <mxGeometry x="480" y="175" width="200" height="30" as="geometry" />
        </mxCell>
        <mxCell id="VkWI0dTlf0ZNrizkGloP-7" value="&lt;font style=&quot;font-size: 16px;&quot;&gt;Start&lt;/font&gt;" style="text;html=1;align=center;verticalAlign=middle;whiteSpace=wrap;rounded=0;" vertex="1" parent="1">
          <mxGeometry x="550" y="75" width="60" height="30" as="geometry" />
        </mxCell>
        <mxCell id="VkWI0dTlf0ZNrizkGloP-8" value="&lt;font style=&quot;font-size: 16px;&quot;&gt;Design&lt;/font&gt;" style="text;html=1;align=center;verticalAlign=middle;whiteSpace=wrap;rounded=0;" vertex="1" parent="1">
          <mxGeometry x="550" y="275" width="60" height="30" as="geometry" />
        </mxCell>
        <mxCell id="VkWI0dTlf0ZNrizkGloP-9" style="edgeStyle=orthogonalEdgeStyle;rounded=0;orthogonalLoop=1;jettySize=auto;html=1;entryX=0.5;entryY=0;entryDx=0;entryDy=0;" edge="1" parent="1" source="VkWI0dTlf0ZNrizkGloP-10" target="VkWI0dTlf0ZNrizkGloP-27">
          <mxGeometry relative="1" as="geometry" />
        </mxCell>
        <mxCell id="VkWI0dTlf0ZNrizkGloP-10" value="" style="rounded=0;whiteSpace=wrap;html=1;fontSize=16;" vertex="1" parent="1">
          <mxGeometry x="440" y="670" width="280" height="60" as="geometry" />
        </mxCell>
        <mxCell id="VkWI0dTlf0ZNrizkGloP-11" value="&lt;font style=&quot;font-size: 16px;&quot;&gt;Testing&lt;/font&gt;" style="text;html=1;align=center;verticalAlign=middle;whiteSpace=wrap;rounded=0;" vertex="1" parent="1">
          <mxGeometry x="550" y="685" width="60" height="30" as="geometry" />
        </mxCell>
        <mxCell id="VkWI0dTlf0ZNrizkGloP-12" style="edgeStyle=orthogonalEdgeStyle;rounded=0;orthogonalLoop=1;jettySize=auto;html=1;entryX=0.5;entryY=0;entryDx=0;entryDy=0;" edge="1" parent="1" source="VkWI0dTlf0ZNrizkGloP-13" target="VkWI0dTlf0ZNrizkGloP-10">
          <mxGeometry relative="1" as="geometry" />
        </mxCell>
        <mxCell id="VkWI0dTlf0ZNrizkGloP-13" value="" style="rounded=0;whiteSpace=wrap;html=1;fontSize=16;" vertex="1" parent="1">
          <mxGeometry x="440" y="560" width="280" height="60" as="geometry" />
        </mxCell>
        <mxCell id="VkWI0dTlf0ZNrizkGloP-14" value="&lt;font style=&quot;font-size: 16px;&quot;&gt;Development&lt;/font&gt;" style="text;html=1;align=center;verticalAlign=middle;whiteSpace=wrap;rounded=0;" vertex="1" parent="1">
          <mxGeometry x="480" y="575" width="200" height="30" as="geometry" />
        </mxCell>
        <mxCell id="VkWI0dTlf0ZNrizkGloP-15" value="" style="rounded=0;whiteSpace=wrap;html=1;fontSize=16;" vertex="1" parent="1">
          <mxGeometry x="440" y="990" width="280" height="60" as="geometry" />
        </mxCell>
        <mxCell id="VkWI0dTlf0ZNrizkGloP-16" value="&lt;font style=&quot;font-size: 16px;&quot;&gt;User Acceptance Test&lt;/font&gt;" style="text;html=1;align=center;verticalAlign=middle;whiteSpace=wrap;rounded=0;" vertex="1" parent="1">
          <mxGeometry x="480" y="1005" width="200" height="30" as="geometry" />
        </mxCell>
        <mxCell id="VkWI0dTlf0ZNrizkGloP-17" value="" style="rounded=0;whiteSpace=wrap;html=1;fontSize=16;" vertex="1" parent="1">
          <mxGeometry x="440" y="1220" width="280" height="60" as="geometry" />
        </mxCell>
        <mxCell id="VkWI0dTlf0ZNrizkGloP-18" value="&lt;span style=&quot;font-size: 16px;&quot;&gt;Maintenance&lt;/span&gt;" style="text;html=1;align=center;verticalAlign=middle;whiteSpace=wrap;rounded=0;" vertex="1" parent="1">
          <mxGeometry x="480" y="1235" width="200" height="30" as="geometry" />
        </mxCell>
        <mxCell id="VkWI0dTlf0ZNrizkGloP-19" value="" style="ellipse;whiteSpace=wrap;html=1;" vertex="1" parent="1">
          <mxGeometry x="500" y="1320" width="160" height="80" as="geometry" />
        </mxCell>
        <mxCell id="VkWI0dTlf0ZNrizkGloP-20" value="&lt;font style=&quot;font-size: 16px;&quot;&gt;End&lt;/font&gt;" style="text;html=1;align=center;verticalAlign=middle;whiteSpace=wrap;rounded=0;" vertex="1" parent="1">
          <mxGeometry x="550" y="1345" width="60" height="30" as="geometry" />
        </mxCell>
        <mxCell id="VkWI0dTlf0ZNrizkGloP-21" value="&lt;font style=&quot;font-size: 16px;&quot;&gt;Fig2. Software Development Life Cycle&lt;/font&gt;" style="text;html=1;align=center;verticalAlign=middle;whiteSpace=wrap;rounded=0;" vertex="1" parent="1">
          <mxGeometry x="400" y="1440" width="360" height="30" as="geometry" />
        </mxCell>
        <mxCell id="VkWI0dTlf0ZNrizkGloP-22" value="" style="endArrow=classic;html=1;rounded=0;entryX=0.5;entryY=0;entryDx=0;entryDy=0;exitX=0.5;exitY=1;exitDx=0;exitDy=0;" edge="1" parent="1" source="VkWI0dTlf0ZNrizkGloP-1" target="VkWI0dTlf0ZNrizkGloP-3">
          <mxGeometry width="50" height="50" relative="1" as="geometry">
            <mxPoint x="550" y="460" as="sourcePoint" />
            <mxPoint x="500" y="510" as="targetPoint" />
          </mxGeometry>
        </mxCell>
        <mxCell id="VkWI0dTlf0ZNrizkGloP-23" value="" style="endArrow=classic;html=1;rounded=0;entryX=0.5;entryY=0;entryDx=0;entryDy=0;exitX=0.5;exitY=1;exitDx=0;exitDy=0;" edge="1" parent="1" source="VkWI0dTlf0ZNrizkGloP-17">
          <mxGeometry width="50" height="50" relative="1" as="geometry">
            <mxPoint x="579.81" y="1290" as="sourcePoint" />
            <mxPoint x="579.81" y="1320" as="targetPoint" />
          </mxGeometry>
        </mxCell>
        <mxCell id="VkWI0dTlf0ZNrizkGloP-24" style="edgeStyle=orthogonalEdgeStyle;rounded=0;orthogonalLoop=1;jettySize=auto;html=1;entryX=0.5;entryY=0;entryDx=0;entryDy=0;" edge="1" parent="1" source="VkWI0dTlf0ZNrizkGloP-25" target="VkWI0dTlf0ZNrizkGloP-13">
          <mxGeometry relative="1" as="geometry" />
        </mxCell>
        <mxCell id="VkWI0dTlf0ZNrizkGloP-25" value="" style="rhombus;whiteSpace=wrap;html=1;" vertex="1" parent="1">
          <mxGeometry x="495" y="360" width="170" height="160" as="geometry" />
        </mxCell>
        <mxCell id="VkWI0dTlf0ZNrizkGloP-26" style="edgeStyle=orthogonalEdgeStyle;rounded=0;orthogonalLoop=1;jettySize=auto;html=1;" edge="1" parent="1" source="VkWI0dTlf0ZNrizkGloP-27" target="VkWI0dTlf0ZNrizkGloP-15">
          <mxGeometry relative="1" as="geometry" />
        </mxCell>
        <mxCell id="VkWI0dTlf0ZNrizkGloP-27" value="" style="rhombus;whiteSpace=wrap;html=1;" vertex="1" parent="1">
          <mxGeometry x="495" y="780" width="170" height="160" as="geometry" />
        </mxCell>
        <mxCell id="VkWI0dTlf0ZNrizkGloP-28" value="&lt;font style=&quot;font-size: 16px;&quot;&gt;Design Review&lt;/font&gt;" style="text;html=1;align=center;verticalAlign=middle;whiteSpace=wrap;rounded=0;" vertex="1" parent="1">
          <mxGeometry x="500" y="425" width="160" height="30" as="geometry" />
        </mxCell>
        <mxCell id="VkWI0dTlf0ZNrizkGloP-29" value="" style="endArrow=classic;html=1;rounded=0;entryX=1;entryY=0.5;entryDx=0;entryDy=0;" edge="1" parent="1" target="VkWI0dTlf0ZNrizkGloP-5">
          <mxGeometry width="50" height="50" relative="1" as="geometry">
            <mxPoint x="665" y="440" as="sourcePoint" />
            <mxPoint x="840" y="290" as="targetPoint" />
            <Array as="points">
              <mxPoint x="840" y="440" />
              <mxPoint x="840" y="290" />
            </Array>
          </mxGeometry>
        </mxCell>
        <mxCell id="VkWI0dTlf0ZNrizkGloP-30" value="" style="endArrow=classic;html=1;rounded=0;exitX=0;exitY=0.5;exitDx=0;exitDy=0;" edge="1" parent="1" source="VkWI0dTlf0ZNrizkGloP-27">
          <mxGeometry width="50" height="50" relative="1" as="geometry">
            <mxPoint x="390" y="750" as="sourcePoint" />
            <mxPoint x="440" y="700" as="targetPoint" />
            <Array as="points">
              <mxPoint x="320" y="860" />
              <mxPoint x="320" y="700" />
            </Array>
          </mxGeometry>
        </mxCell>
        <mxCell id="VkWI0dTlf0ZNrizkGloP-31" style="edgeStyle=orthogonalEdgeStyle;rounded=0;orthogonalLoop=1;jettySize=auto;html=1;entryX=0.5;entryY=0;entryDx=0;entryDy=0;" edge="1" parent="1" source="VkWI0dTlf0ZNrizkGloP-32" target="VkWI0dTlf0ZNrizkGloP-17">
          <mxGeometry relative="1" as="geometry" />
        </mxCell>
        <mxCell id="VkWI0dTlf0ZNrizkGloP-32" value="" style="rounded=0;whiteSpace=wrap;html=1;fontSize=16;" vertex="1" parent="1">
          <mxGeometry x="440" y="1110" width="280" height="60" as="geometry" />
        </mxCell>
        <mxCell id="VkWI0dTlf0ZNrizkGloP-33" value="&lt;font style=&quot;font-size: 16px;&quot;&gt;Deployment&lt;/font&gt;" style="text;html=1;align=center;verticalAlign=middle;whiteSpace=wrap;rounded=0;" vertex="1" parent="1">
          <mxGeometry x="470" y="1125" width="210" height="35" as="geometry" />
        </mxCell>
        <mxCell id="VkWI0dTlf0ZNrizkGloP-34" style="edgeStyle=orthogonalEdgeStyle;rounded=0;orthogonalLoop=1;jettySize=auto;html=1;exitX=0.5;exitY=1;exitDx=0;exitDy=0;" edge="1" parent="1" source="VkWI0dTlf0ZNrizkGloP-15" target="VkWI0dTlf0ZNrizkGloP-32">
          <mxGeometry relative="1" as="geometry">
            <mxPoint x="580" y="1060" as="sourcePoint" />
          </mxGeometry>
        </mxCell>
        <mxCell id="VkWI0dTlf0ZNrizkGloP-35" value="&lt;font style=&quot;font-size: 16px;&quot;&gt;NO&lt;/font&gt;" style="text;html=1;align=center;verticalAlign=middle;whiteSpace=wrap;rounded=0;" vertex="1" parent="1">
          <mxGeometry x="660" y="400" width="60" height="30" as="geometry" />
        </mxCell>
        <mxCell id="VkWI0dTlf0ZNrizkGloP-36" value="&lt;font style=&quot;font-size: 16px;&quot;&gt;NO&lt;/font&gt;" style="text;html=1;align=center;verticalAlign=middle;whiteSpace=wrap;rounded=0;" vertex="1" parent="1">
          <mxGeometry x="440" y="820" width="60" height="30" as="geometry" />
        </mxCell>
        <mxCell id="VkWI0dTlf0ZNrizkGloP-37" value="&lt;font style=&quot;font-size: 16px;&quot;&gt;Test Review&lt;/font&gt;" style="text;html=1;align=center;verticalAlign=middle;whiteSpace=wrap;rounded=0;" vertex="1" parent="1">
          <mxGeometry x="510" y="845" width="140" height="30" as="geometry" />
        </mxCell>
        <mxCell id="VkWI0dTlf0ZNrizkGloP-38" value="&lt;font style=&quot;font-size: 16px;&quot;&gt;YES&lt;/font&gt;" style="text;html=1;align=center;verticalAlign=middle;whiteSpace=wrap;rounded=0;" vertex="1" parent="1">
          <mxGeometry x="585" y="520" width="60" height="30" as="geometry" />
        </mxCell>
        <mxCell id="VkWI0dTlf0ZNrizkGloP-39" value="&lt;font style=&quot;font-size: 16px;&quot;&gt;YES&lt;/font&gt;" style="text;html=1;align=center;verticalAlign=middle;whiteSpace=wrap;rounded=0;" vertex="1" parent="1">
          <mxGeometry x="590" y="940" width="60" height="30" as="geometry" />
        </mxCell>
      </root>
    </mxGraphModel>
  </diagram>
</mxfile>
